<svg width="98" height="98" viewBox="0 0 98 98" fill="none" xmlns="http://www.w3.org/2000/svg">
<path d="M18.375 80.3906H79.625C83.8359 80.3906 87.2812 76.9453 87.2812 72.7344V25.2656C87.2812 21.0547 83.8359 17.6094 79.625 17.6094H18.375C14.1641 17.6094 10.7188 21.0547 10.7188 25.2656V72.7344C10.7188 76.9453 14.1641 80.3906 18.375 80.3906Z" fill="white"/>
<path d="M79.625 82.6875H18.375C12.8625 82.6875 8.42188 78.2469 8.42188 72.7344V35.2188C8.42188 33.9172 9.41719 32.9219 10.7188 32.9219C12.0203 32.9219 13.0156 33.9172 13.0156 35.2188V72.7344C13.0156 75.7203 15.3891 78.0938 18.375 78.0938H79.625C82.6109 78.0938 84.9844 75.6437 84.9844 73.5V39.0469C84.9844 37.7453 85.9797 36.75 87.2812 36.75C88.5828 36.75 89.5781 37.7453 89.5781 39.0469V73.5C89.5781 78.4 84.9078 82.6875 79.625 82.6875Z" fill="#444B54"/>
<path d="M49 52.8281C38.1281 52.8281 28.0219 48.5406 20.5187 40.6547C19.6766 39.7359 19.6766 38.2813 20.5953 37.4391C21.5141 36.5969 22.9688 36.5969 23.8109 37.5156C30.4719 44.4062 39.3531 48.2344 48.9234 48.2344C58.4938 48.2344 67.4516 44.4062 74.0359 37.5156C74.8781 36.5969 76.3328 36.5969 77.2516 37.4391C78.1703 38.2813 78.1703 39.7359 77.3281 40.6547C69.9781 48.5406 59.8719 52.8281 49 52.8281ZM10.7188 27.5625C9.41719 27.5625 8.42188 26.5672 8.42188 25.2656C8.42188 19.7531 12.8625 15.3125 18.375 15.3125H58.1875C59.4891 15.3125 60.4844 16.3078 60.4844 17.6094C60.4844 18.9109 59.4891 19.9062 58.1875 19.9062H18.375C15.3891 19.9062 13.0156 22.2797 13.0156 25.2656C13.0156 26.5672 12.0203 27.5625 10.7188 27.5625Z" fill="#444B54"/>
<path d="M81.1562 2.29688C77.0951 2.29688 73.2003 3.91015 70.3287 6.7818C67.457 9.65345 65.8438 13.5482 65.8438 17.6094C65.8438 21.6705 67.457 25.5653 70.3287 28.4369C73.2003 31.3086 77.0951 32.9219 81.1562 32.9219C85.2174 32.9219 89.1122 31.3086 91.9838 28.4369C94.8555 25.5653 96.4688 21.6705 96.4688 17.6094C96.4688 13.5482 94.8555 9.65345 91.9838 6.7818C89.1122 3.91015 85.2174 2.29688 81.1562 2.29688Z" fill="#FF5576"/>
<path d="M81.1562 19.9062C79.8547 19.9062 78.8594 18.9109 78.8594 17.6094V9.95312C78.8594 8.65156 79.8547 7.65625 81.1562 7.65625C82.4578 7.65625 83.4531 8.65156 83.4531 9.95312V17.6094C83.4531 18.9109 82.4578 19.9062 81.1562 19.9062ZM81.1562 27.5625C81.0031 27.5625 80.85 27.5625 80.6969 27.4859C80.5437 27.4859 80.3906 27.4094 80.2375 27.3328C80.0844 27.2563 80.0078 27.1797 79.8547 27.1031C79.7016 27.0266 79.625 26.95 79.5484 26.7969C79.0891 26.3375 78.8594 25.8016 78.8594 25.1891C78.8594 25.0359 78.8594 24.8828 78.9359 24.7297C78.9359 24.5766 79.0125 24.4234 79.0891 24.2703C79.1656 24.1172 79.2422 23.9641 79.3187 23.8875C79.3953 23.7344 79.4719 23.6578 79.625 23.5047C80.4672 22.6625 81.9984 22.6625 82.8406 23.5047C83.3 23.9641 83.5297 24.5 83.5297 25.1125C83.5297 25.725 83.3 26.3375 82.8406 26.7203C82.7641 26.7969 82.6109 26.95 82.5344 27.0266C82.3812 27.1031 82.3047 27.1797 82.1516 27.2562C81.9984 27.3328 81.8453 27.3328 81.6922 27.4094C81.4625 27.5625 81.3094 27.5625 81.1562 27.5625Z" fill="white"/>
</svg>
