<?xml version="1.0" encoding="utf-8"?>
<!-- Generator: Adobe Illustrator 15.1.0, SVG Export Plug-In . SVG Version: 6.00 Build 0)  -->
<!DOCTYPE svg PUBLIC "-//W3C//DTD SVG 1.1//EN" "http://www.w3.org/Graphics/SVG/1.1/DTD/svg11.dtd">
<svg version="1.1" id="Layer_1" xmlns="http://www.w3.org/2000/svg" xmlns:xlink="http://www.w3.org/1999/xlink" x="0px" y="0px"
	 width="100px" height="120px" viewBox="0 0 100 120" enable-background="new 0 0 100 120" xml:space="preserve">
<g>
	<path fill="#595A5C" d="M49.273,111.808c-0.097,0-0.193-0.01-0.285-0.03l-0.106-0.023H4.596l-0.105,0.023
		c-0.093,0.021-0.189,0.03-0.286,0.03c-0.174,0-1.042-0.047-1.042-0.973V77.78c0-2.034,0.144-3.022,1.454-3.301
		c0.606-0.128,1.309-0.188,2.21-0.188c0.51,0,1.023,0.019,1.529,0.036c0.518,0.018,1.029,0.035,1.526,0.035h38.405v-8.28
		l-0.34-0.299l-4.313-4.577c-0.094-0.093-0.154-0.183-0.205-0.291l-0.03-0.063c-0.021-0.067-0.042-0.115-0.052-0.137
		c-0.08-0.245-0.062-0.7,0.234-0.972l25.813-23.568c0.232-0.212,0.5-0.323,0.778-0.323c0.272,0,0.532,0.109,0.754,0.315
		l10.067,9.381l-0.141-2.652c-0.046-0.851-0.123-2.273,0.311-2.659c0.613-0.541,1.585-0.584,2.613-0.63l0.232-0.011
		c0.719-0.035,1.439-0.054,2.159-0.054c0.601,0,1.2,0.013,1.8,0.039l0.482,0.016c0.839,0.023,1.79,0.051,2.354,0.402
		c0.499,0.311,0.583,0.725,0.583,1.811v12.512c0,0.087-0.01,0.168-0.024,0.244l-0.105,0.544l5.298,4.938
		c0.181,0.168,0.296,0.509,0.281,0.833c-0.011,0.24-0.088,0.435-0.213,0.532l-4.765,3.712v43.944c0,0.359-0.053,0.709-0.157,1.037
		l-0.067,0.213l0.029,0.221c0.046,0.349-0.048,0.705-0.244,0.929c-0.168,0.191-0.402,0.284-0.719,0.284H49.668l-0.105,0.023
		C49.469,111.798,49.371,111.808,49.273,111.808z M71.064,102.603c0.443,0,0.808,0.008,1.109,0.112
		c0.223,0.078,0.904,0.315,0.904,1.464v5.489h16.697v-43.87L70.081,47.051l-19.71,17.705v37.847h5.086V90.334
		c0-0.317-0.016-0.686-0.033-1.083c-0.059-1.309-0.147-3.287,0.525-3.962c0.275-0.275,0.813-0.404,1.688-0.404
		c0.305,0,0.609,0.015,0.898,0.027c0.295,0.014,0.575,0.026,0.831,0.026h6.878c0.842,0,1.248,0.693,1.339,1.286
		c0.165,1.078,0.133,2.266,0.102,3.413c-0.013,0.477-0.025,0.95-0.025,1.416v11.549H71.064z M50.371,109.668h20.622v-4.981H50.371
		V109.668z M40.596,82.474c0.834,0,2.246,0.354,2.246,1.677v25.518h5.391v-1.351c-0.029-0.959-0.016-1.9,0-2.617V76.449H5.245
		v33.219h5.298V86.753c0-0.249-0.01-0.523-0.021-0.813c-0.039-0.984-0.093-2.332,0.432-2.846c0.605-0.591,1.305-0.621,2.393-0.621
		H40.596z M12.627,109.668h28.131v-7.499H12.627V109.668z M57.539,102.603h8.037V87.021h-8.037V102.603z M12.627,100.086h28.131
		v-6.85H12.627V100.086z M12.627,91.15h28.131v-6.596H12.627V91.15z M70.123,44.605c0.268,0,0.521,0.107,0.732,0.309l19.626,18.682
		l3.724-2.898l-24.051-22.4L45.836,60.505l2.818,2.998l20.674-18.568C69.563,44.722,69.846,44.605,70.123,44.605z M86.083,41.629
		c-0.724,0-1.447,0.017-2.168,0.055l-0.947,0.051v5.655l6.337,5.9V43.245v-1.528l-1.408-0.055
		C87.291,41.641,86.688,41.629,86.083,41.629z M76.17,98.6c-1.049,0-1.725-0.082-2.293-0.517c-1.001-0.763-1.428-1.809-1.428-3.498
		v-6.296c0-0.063,0.008-0.125,0.018-0.183c0.209-1.959,1.523-3.146,3.436-3.146h4.483c2.03,0,3.187,0.223,3.876,1.44
		c0.119,0.21,0.395,0.922,0.467,1.143l-2.744-0.498l-0.055-0.036l-0.242,0.036H74.21l0.341,0.986l-0.019,0.258
		c0,0,0.001,6.792-0.001,6.842l0.088,0.406c-0.002-0.068,0.003-0.147,0.021-0.233l-0.053,0.246l-0.021,0.009
		c0.004,0.011,0.008,0.021,0.012,0.033l-0.199,0.923h7.807l0.15-0.227l0.016-0.01l0.398-0.908l-0.028-0.172l-0.03-0.109l0.031,0.029
		c-0.006-0.091-0.013-0.371-0.013-0.433v-7.747l1.95,0.531c0.15,0.697,0.144,1.451,0.135,2.278l-0.003,4.492
		c0,1.523-0.138,2.508-0.864,3.353c-0.725,0.84-1.697,1.004-3.136,1.004L76.17,98.6z M59.066,79.569
		c-1.063,0-1.748-0.083-2.319-0.52c-1.002-0.763-1.429-1.809-1.429-3.499v-6.292c0-0.072,0.008-0.141,0.016-0.204
		c0.209-1.941,1.523-3.129,3.436-3.129h4.482c2.031,0,3.188,0.223,3.875,1.439c0.559,0.985,0.549,2.079,0.535,3.346l-0.003,4.495
		c0,1.524-0.138,2.511-0.862,3.354c-0.729,0.842-1.702,1.007-3.139,1.007L59.066,79.569z M65.057,77.48l0.751-0.509l-0.187-0.619
		l-0.035-0.197l-0.031-0.108l0.035,0.03c-0.008-0.091-0.014-0.364-0.014-0.425v-6.606l-0.121-0.282
		c0.119,0.285-0.293-0.552-0.293-0.552l-0.251-0.168l-0.357-0.034l-0.021,0.105l-0.025-0.105h-7.414l0.337,1.011
		c-0.018,0.069-0.029,0.148-0.029,0.238v6.839l0.087,0.354c0.001-0.056-0.02,0.008-0.02,0.008l-0.047,0.02
		c0.008,0.026,0.016,0.053,0.025,0.079l-0.199,0.922h1.178H65.057z"/>
	<path fill="#595A5C" d="M69.375,80.251"/>
	<path fill="#3EB549" d="M84.262,67.366c-0.689-1.218-1.846-1.44-3.876-1.44h-4.483c-1.912,0-3.227,1.188-3.436,3.146
		c-0.01,0.059-0.018,0.121-0.018,0.187v6.292c0,1.689,0.427,2.735,1.427,3.498c0.573,0.438,1.259,0.521,2.324,0.521l4.592-0.003
		c1.436,0,2.409-0.165,3.136-1.007c0.727-0.845,0.864-1.83,0.864-3.354l0.003-4.492C84.809,69.446,84.818,68.352,84.262,67.366z
		 M82.471,77.174l-0.136,0.081l-0.151,0.226h-6.628h-1.177c0,0,0.191-0.945,0.188-0.956l-0.035-0.428
		c0.002-0.049,0.001-7.014,0.001-7.014l0.024-0.065l-0.355-1.008h7.437h0.05l0.268-0.039l0.264,0.192c0,0,0.486,0.872,0.364,0.59
		l0.127,0.289v6.61c0,0.061,0.007,0.339,0.013,0.429l-0.032-0.029l0.031,0.112l0.035,0.217l0.174,0.61L82.471,77.174z"/>
</g>
</svg>
