<?xml version="1.0" encoding="utf-8"?>
<!-- Generator: Adobe Illustrator 15.1.0, SVG Export Plug-In . SVG Version: 6.00 Build 0)  -->
<!DOCTYPE svg PUBLIC "-//W3C//DTD SVG 1.1//EN" "http://www.w3.org/Graphics/SVG/1.1/DTD/svg11.dtd">
<svg version="1.1" id="Layer_1" xmlns="http://www.w3.org/2000/svg" xmlns:xlink="http://www.w3.org/1999/xlink" x="0px" y="0px"
	 width="100px" height="120px" viewBox="0 0 100 120" enable-background="new 0 0 100 120" xml:space="preserve">
<g>
	<path fill="#ffffff" d="M35.697,61.421c-0.004-0.253-0.275-0.354-0.478-0.388l-4.315-0.629l-1.934-3.909
		c-0.08-0.166-0.223-0.354-0.424-0.354c-0.195,0-0.342,0.188-0.416,0.354l-1.938,3.909l-4.315,0.629
		c-0.215,0.034-0.479,0.137-0.479,0.396c0,0.152,0.111,0.3,0.213,0.411l3.129,3.042l-0.739,4.299
		c-0.007,0.062-0.017,0.113-0.017,0.174c0,0.224,0.11,0.428,0.359,0.428c0.121,0,0.23-0.04,0.346-0.102l3.857-2.028l3.861,2.028
		c0.104,0.062,0.223,0.102,0.344,0.102c0.249,0,0.352-0.204,0.352-0.428c0-0.061,0-0.112-0.006-0.174l-0.74-4.299l3.123-3.042
		c0.109-0.109,0.217-0.255,0.217-0.407c0,0.013,0.01,0.024,0.012,0.037v-0.09C35.707,61.396,35.697,61.405,35.697,61.421z"/>
	<path fill="#ffffff" d="M78.603,61.43c0-0.26-0.273-0.362-0.481-0.396l-4.316-0.629l-1.935-3.909
		c-0.077-0.166-0.222-0.354-0.421-0.354c-0.197,0-0.34,0.188-0.418,0.354l-1.938,3.909l-4.313,0.629
		c-0.211,0.032-0.475,0.135-0.482,0.386c-0.009-0.251-0.275-0.354-0.479-0.386l-4.314-0.629l-1.933-3.909
		c-0.077-0.166-0.223-0.354-0.423-0.354c-0.197,0-0.344,0.188-0.423,0.354l-1.932,3.909l-4.317,0.629
		c-0.204,0.033-0.449,0.132-0.472,0.368v0.051c0.012,0.146,0.108,0.284,0.207,0.389l3.128,3.042l-0.74,4.299
		c-0.008,0.062-0.015,0.113-0.015,0.174c0,0.224,0.107,0.428,0.358,0.428c0.122,0,0.235-0.04,0.345-0.102l3.86-2.028l3.861,2.028
		c0.101,0.062,0.222,0.102,0.344,0.102c0.247,0,0.352-0.204,0.352-0.428c0-0.061,0-0.112-0.008-0.174l-0.739-4.299l3.121-3.042
		c0.109-0.109,0.217-0.253,0.219-0.401c0.007,0.148,0.112,0.292,0.213,0.401l3.13,3.042L66.9,69.182
		c-0.003,0.062-0.015,0.113-0.015,0.174c0,0.224,0.112,0.428,0.362,0.428c0.116,0,0.229-0.04,0.341-0.102l3.86-2.028l3.858,2.028
		c0.106,0.062,0.227,0.102,0.344,0.102c0.251,0,0.353-0.204,0.353-0.428c0-0.061,0-0.112-0.008-0.174l-0.738-4.299l3.119-3.042
		C78.49,61.729,78.603,61.582,78.603,61.43z"/>
	<path fill="#ffffff" d="M50,61.421c-0.01-0.253-0.277-0.354-0.479-0.388l-4.316-0.629l-1.936-3.909
		c-0.079-0.166-0.222-0.354-0.42-0.354c-0.199,0-0.345,0.188-0.423,0.354l-1.932,3.909l-4.319,0.629
		c-0.198,0.032-0.433,0.128-0.467,0.348v0.09c0.02,0.139,0.106,0.27,0.202,0.37l3.13,3.042l-0.74,4.299
		c-0.008,0.062-0.016,0.113-0.016,0.174c0,0.224,0.109,0.428,0.359,0.428c0.123,0,0.233-0.04,0.346-0.102l3.859-2.028l3.857,2.028
		c0.106,0.062,0.229,0.102,0.345,0.102c0.249,0,0.353-0.204,0.353-0.428c0-0.061,0-0.112-0.009-0.174l-0.737-4.299l3.119-3.042
		c0.111-0.109,0.219-0.255,0.223-0.407c0,0.007,0.005,0.012,0.006,0.019v-0.051C50.005,61.408,50,61.413,50,61.421z"/>
	<path fill="#ffffff" d="M42.85,69.822l-2.914,1.532c1.799-0.002,3.603-0.004,5.404-0.006c0.139,0,0.277-0.002,0.42-0.002
		c-0.008-0.004-0.02-0.006-0.027-0.012L42.85,69.822z"/>
	<path fill="#ffffff" d="M64.967,69.355c0-0.121,0.008-0.23,0.021-0.346l0.021-0.151l0.417-2.414c-0.751,0-1.5-0.002-2.251-0.002
		l0.415,2.416c0.031,0.23,0.037,0.354,0.037,0.497c0,0.859-0.434,1.592-1.081,2.001c1.174,0.002,2.342,0.004,3.515,0.004
		C65.399,70.954,64.967,70.219,64.967,69.355z"/>
	<path fill="#ffffff" d="M71.449,69.822l-2.936,1.541c1.971,0.002,3.939,0.007,5.908,0.007c-0.033-0.014-0.063-0.02-0.089-0.035
		L71.449,69.822z"/>
	<path fill="#ffffff" d="M61.441,57.737l-0.396-0.802l6.331,0.36l-0.219,0.441c0,0-2.849,0.414-2.858,0.415
		C64.293,58.151,61.441,57.737,61.441,57.737z"/>
	<path fill="#ffffff" d="M50.018,118c-0.211,0-0.35-0.023-0.477-0.07l-5.6-1.506l-29.645-7.938
		c-0.607-0.163-1.064-0.767-1.064-1.404v-77c0-0.636,0.465-1.264,1.036-1.398l11.324-2.699v-9.816c0-0.642,0.448-1.222,1.089-1.412
		l22.623-6.664l0.088-0.045c0.152-0.08,0.329-0.12,0.524-0.12c0,0,0.123,0,0.126,0c0.238,0,0.412,0.041,0.563,0.119l0.086,0.046
		l22.63,6.664c0.639,0.19,1.087,0.771,1.087,1.412v9.817l11.322,2.697c0.572,0.136,1.037,0.764,1.037,1.399v77
		c0,0.638-0.457,1.241-1.064,1.404l-35.16,9.417c-0.212,0.074-0.354,0.098-0.496,0.098C50.047,118,50.019,118,50.018,118z
		 M51.457,105.438v9.201l32.394-8.68v-6.952L51.457,105.438z M16.148,105.959l32.394,8.68v-9.202l-32.394-6.429V105.959z
		 M16.148,96.047l32.394,6.43v-8.641l-32.394-4.295V96.047z M51.457,93.837v8.636l3.301-0.649l29.093-5.775V89.54L51.457,93.837z
		 M51.457,81.81v9.13l32.394-4.295v-6.908L51.457,81.81z M16.148,86.646c0,0,2.521,0.329,3.292,0.435l29.102,3.857v-9.13
		l-32.394-2.073V86.646z M51.457,78.901l32.394-2.077v-6.438l-5.077-0.008c0.1-0.324,0.152-0.668,0.152-1.022
		c0-0.179-0.008-0.334-0.044-0.623l-0.218-1.271l5.187,0.007v-6.323l-2.353-0.13c-0.18-1.467-1.314-2.597-2.937-2.869l-2.426-0.352
		l7.715,0.439v-7.167l-32.394-3.813v9.142l2.009,0.111l-0.61,1.231c0,0-2.848,0.414-2.856,0.415
		c-0.007-0.001-2.857-0.415-2.857-0.415l-0.608-1.233l2.009-0.112v-9.137l-32.394,3.813v7.164l7.714-0.438l-2.436,0.354
		c-1.595,0.259-2.739,1.408-2.924,2.865l-2.354,0.133v6.323l5.186-0.009l-0.229,1.332c-0.027,0.225-0.041,0.384-0.041,0.563
		c0,0.354,0.053,0.699,0.152,1.023l-5.068,0.005v6.442l32.394,2.072v-6.555c0.638-0.327,1.145-0.858,1.452-1.506
		c0.309,0.651,0.819,1.184,1.463,1.51V78.901z M51.457,44.353l32.394,3.814v-6.762l-32.394-5.713V44.353z M16.148,41.405v6.761
		l32.394-3.815v-8.658L16.148,41.405z M16.148,31.23v7.24l3.168-0.563l29.226-5.155v-9.231L16.148,31.23z M51.457,32.753
		l32.394,5.714v-7.235l-32.394-7.713V32.753z M28.508,17.257v8.034l20.034-4.768v-9.167L28.508,17.257z M51.457,20.524l20.034,4.766
		v-8.033l-20.034-5.9V20.524z M49.795,65.9l0.202-0.196l0.204,0.199l-0.203,1.182L49.795,65.9z"/>
	<path fill="#ffffff" d="M28.549,69.822l-2.95,1.55c1.969-0.002,3.937-0.004,5.905-0.009c-0.023-0.011-0.049-0.015-0.071-0.028
		L28.549,69.822z"/>
	<path fill="#ffffff" d="M36.365,69.355c0-0.121,0.01-0.23,0.021-0.346l0.022-0.151l0.418-2.418c-0.751,0.002-1.5,0.004-2.252,0.004
		l0.416,2.414c0.027,0.23,0.036,0.354,0.036,0.497c0,0.865-0.438,1.599-1.093,2.005c1.174,0,2.344,0,3.518-0.002
		C36.795,70.949,36.365,70.217,36.365,69.355z"/>
	<path fill="#ffffff" d="M32.843,57.737l-0.218-0.441l6.328-0.36l-0.396,0.802c0,0-2.849,0.414-2.858,0.415
		C35.692,58.151,32.843,57.737,32.843,57.737z"/>
	<path fill="#ffffff" d="M57.149,69.822l-2.898,1.524c1.942,0.002,3.884,0.004,5.828,0.006c-0.017-0.006-0.032-0.01-0.045-0.018
		L57.149,69.822z"/>
</g>
</svg>
