<?xml version="1.0" encoding="utf-8"?>
<!-- Generator: Adobe Illustrator 15.1.0, SVG Export Plug-In . SVG Version: 6.00 Build 0)  -->
<!DOCTYPE svg PUBLIC "-//W3C//DTD SVG 1.1//EN" "http://www.w3.org/Graphics/SVG/1.1/DTD/svg11.dtd">
<svg version="1.1" id="Layer_1" xmlns="http://www.w3.org/2000/svg" xmlns:xlink="http://www.w3.org/1999/xlink" x="0px" y="0px"
	 width="300px" height="60px" viewBox="0 0 300 60" enable-background="new 0 0 300 60" xml:space="preserve">
<g>
	<g>
		<g>
			<path fill="#939599" d="M96.744,28.935c0,5.71-1.657,10.303-4.974,13.783c-3.316,3.48-7.414,5.223-12.298,5.223
				c-4.915,0-9.072-1.75-12.471-5.246c-3.397-3.497-5.097-7.721-5.097-12.669c0-4.95,1.698-9.184,5.097-12.691
				c3.398-3.514,7.556-5.273,12.471-5.273c2.706,0,5.229,0.488,7.572,1.46c2.342,0.973,4.319,2.383,5.938,4.232l-1.436,1.483
				c-1.387-1.687-3.143-2.986-5.271-3.911c-2.127-0.923-4.395-1.384-6.804-1.384c-4.354,0-8.009,1.575-10.962,4.726
				c-2.952,3.149-4.427,6.936-4.427,11.356c0,4.423,1.466,8.198,4.404,11.334c2.936,3.133,6.598,4.699,10.984,4.699
				c4.256,0,7.835-1.484,10.738-4.453c2.903-2.97,4.354-6.599,4.354-10.888H79.47v-1.781H96.744z"/>
			<path fill="#939599" d="M112.233,25.667h-1.979c-1.915,0-3.598,0.894-5.048,2.675c-1.45,1.781-2.179,4.023-2.179,6.73v12.27
				h-1.879V23.886h1.879v4.508c0.627-1.257,1.584-2.321,2.872-3.194c1.285-0.874,2.672-1.313,4.157-1.313h2.177V25.667z"/>
			<path fill="#939599" d="M137.67,36.109c0,3.167-1.164,5.916-3.489,8.241c-2.324,2.324-5.138,3.488-8.437,3.488
				c-3.629,0-6.632-1.17-9.006-3.514c-2.377-2.342-3.564-5.227-3.564-8.659c0-3.397,1.139-6.294,3.414-8.686
				c2.277-2.393,5.198-3.588,8.761-3.588c2.177,0,4.188,0.522,6.038,1.558c1.847,1.04,3.315,2.435,4.403,4.182l-16.775,11.381
				l-1.188-1.581l15.099-10.186c-1.882-2.383-4.404-3.572-7.572-3.572c-2.939,0-5.372,1.046-7.302,3.14
				c-1.933,2.097-2.895,4.578-2.895,7.45c0,2.839,0.969,5.262,2.916,7.276c1.946,2.012,4.373,3.018,7.275,3.018
				c2.807,0,5.221-0.98,7.25-2.945c2.03-1.963,3.044-4.297,3.044-7.002H137.67z"/>
			<path fill="#939599" d="M164.541,36.109c0,3.167-1.163,5.916-3.488,8.241c-2.326,2.324-5.136,3.488-8.438,3.488
				c-3.629,0-6.631-1.17-9.006-3.514c-2.378-2.342-3.563-5.227-3.563-8.659c0-3.397,1.137-6.294,3.411-8.686
				c2.278-2.393,5.199-3.588,8.761-3.588c2.178,0,4.188,0.522,6.039,1.558c1.846,1.04,3.315,2.435,4.402,4.182l-16.776,11.381
				l-1.188-1.581l15.1-10.186c-1.882-2.383-4.403-3.572-7.573-3.572c-2.938,0-5.371,1.046-7.302,3.14
				c-1.931,2.097-2.896,4.578-2.896,7.45c0,2.839,0.975,5.262,2.921,7.276c1.944,2.012,4.373,3.018,7.275,3.018
				c2.804,0,5.222-0.98,7.249-2.945c2.031-1.963,3.044-4.297,3.044-7.002H164.541z"/>
			<path fill="#939599" d="M186.813,47.344h-1.882V33.29c0-2.376-0.727-4.318-2.177-5.84c-1.452-1.514-3.233-2.275-5.346-2.275
				c-2.109,0-3.893,0.761-5.345,2.275c-1.45,1.521-2.177,3.463-2.177,5.84v14.055h-1.882V33.041c0-2.836,0.9-5.154,2.698-6.951
				c1.797-1.798,4.035-2.7,6.706-2.7c2.705,0,4.95,0.891,6.732,2.674c1.781,1.778,2.672,4.106,2.672,6.975L186.813,47.344
				L186.813,47.344z"/>
		</g>
		<g>
			<path fill="#939599" d="M223.863,22.854c0,3.297-1,5.896-2.996,7.794c-1.995,1.895-4.545,2.843-7.646,2.843h-6.73v-1.881h6.73
				c2.508,0,4.544-0.78,6.113-2.348c1.564-1.568,2.35-3.702,2.35-6.408c0-2.737-0.785-4.892-2.35-6.46
				c-1.569-1.566-3.605-2.35-6.113-2.35c-2.439,0-4.478,0.784-6.113,2.35c-1.633,1.568-2.448,3.49-2.448,5.768v25.287h-2.077V22.359
				c0-2.872,0.948-5.287,2.844-7.251c1.896-1.962,4.493-2.945,7.795-2.945c3.1,0,5.65,0.95,7.646,2.847
				C222.863,16.907,223.863,19.52,223.863,22.854"/>
			<path fill="#939599" d="M249.397,35.718c0,3.366-1.149,6.245-3.44,8.636c-2.294,2.395-5.12,3.586-8.487,3.586
				c-3.332,0-6.146-1.191-8.438-3.586c-2.294-2.391-3.438-5.272-3.438-8.636c0-3.367,1.145-6.243,3.438-8.636
				c2.291-2.392,5.105-3.588,8.438-3.588c3.331,0,6.153,1.205,8.463,3.612C248.241,29.517,249.397,32.389,249.397,35.718
				 M247.366,35.718c0-2.806-0.938-5.245-2.819-7.324c-1.88-2.08-4.239-3.119-7.077-3.119c-2.805,0-5.154,1.046-7.051,3.14
				c-1.896,2.099-2.845,4.532-2.845,7.303c0,2.802,0.94,5.246,2.821,7.324c1.88,2.078,4.238,3.117,7.074,3.117
				c2.805,0,5.156-1.047,7.052-3.143C246.421,40.922,247.366,38.487,247.366,35.718"/>
			<path fill="#939599" d="M257.563,17.31c0,0.428-0.142,0.784-0.422,1.066c-0.28,0.275-0.636,0.419-1.063,0.419
				s-0.784-0.144-1.064-0.419c-0.28-0.283-0.421-0.638-0.421-1.066c0-0.428,0.141-0.784,0.421-1.064
				c0.28-0.278,0.637-0.421,1.064-0.421c0.43,0,0.783,0.143,1.063,0.421C257.421,16.525,257.563,16.882,257.563,17.31
				 M257.019,47.448h-1.882V23.989h1.882V47.448z"/>
			<path fill="#939599" d="M282.603,47.448h-1.881V33.392c0-2.376-0.726-4.322-2.178-5.837c-1.452-1.518-3.232-2.278-5.344-2.278
				c-2.114,0-3.894,0.76-5.346,2.278c-1.452,1.516-2.177,3.461-2.177,5.837v14.056h-1.882V33.142c0-2.837,0.899-5.15,2.696-6.95
				c1.798-1.799,4.033-2.701,6.707-2.701c2.703,0,4.947,0.896,6.729,2.676c1.782,1.78,2.675,4.108,2.675,6.975V47.448
				L282.603,47.448z"/>
			<path fill="#939599" d="M297.993,47.448h-3.365c-2.212,0-3.901-0.586-5.073-1.754c-1.171-1.17-1.757-2.822-1.757-4.969v-23.17
				h1.881v6.432h8.314v1.787h-8.314v15.139c0,1.454,0.411,2.605,1.238,3.465c0.823,0.857,1.931,1.287,3.315,1.287h3.761V47.448
				L297.993,47.448z"/>
		</g>
	</g>
	<g>
		<rect x="2.007" y="30.757" fill="#939599" width="23.112" height="23.111"/>
		<g>
			<path fill="#3EB44A" d="M51.872,42.313c0,6.412-5.197,11.607-11.606,11.607c-6.41,0-11.606-5.195-11.606-11.607
				c0-6.411,5.196-11.605,11.606-11.605C46.675,30.708,51.872,35.902,51.872,42.313"/>
		</g>
		<polygon fill="#939599" points="2.09,27.08 27.023,6.081 51.955,27.08 		"/>
	</g>
</g>
</svg>
