<?xml version="1.0" encoding="utf-8"?>
<!-- Generator: Adobe Illustrator 15.1.0, SVG Export Plug-In . SVG Version: 6.00 Build 0)  -->
<!DOCTYPE svg PUBLIC "-//W3C//DTD SVG 1.1//EN" "http://www.w3.org/Graphics/SVG/1.1/DTD/svg11.dtd">
<svg version="1.1" id="Layer_1" xmlns="http://www.w3.org/2000/svg" xmlns:xlink="http://www.w3.org/1999/xlink" x="0px" y="0px"
	 width="100px" height="120px" viewBox="0 0 100 120" enable-background="new 0 0 100 120" xml:space="preserve">
<g>
	<path fill="#ffffff" d="M15.676,111.809c-1.368,0-1.408-1.336-1.408-1.488s0.04-1.488,1.408-1.488h3.791l-0.184-1.157
		c-0.043-0.268-0.063-0.526-0.063-0.792V5.587c0-2.005,0.591-3.489,1.757-4.411C22.349,0.084,23.802,0,25.705,0h48.813
		c1.869,0,3.788,0.119,4.927,1.549c0.922,1.164,1.334,2.446,1.334,4.156v101.182c0,0.086-0.005,0.165-0.017,0.244
		c-0.021,0.199-0.043,0.36-0.072,0.521l-0.215,1.18h3.851c1.367,0,1.407,1.336,1.407,1.488s-0.04,1.488-1.407,1.488H15.676z
		 M76.455,108.729c0.836-0.299,1.314-0.94,1.346-1.806L77.802,4.94c0-0.6-0.086-0.947-0.595-1.419
		c-0.482-0.445-0.744-0.544-1.377-0.544L23.988,2.977c-0.394,0-0.604,0.097-0.873,0.287l-0.088,0.062l-0.683,0.32l-0.122,0.947
		c-0.016,0.098-0.024,0.221-0.024,0.337v101.692c0,0.409,0,0.634,0.146,1.033l1.487,1.167c0,0,0.237,0.01,0.314,0.01h50.973
		L76.455,108.729z M65.186,98.722c-1.369,0-1.408-1.336-1.408-1.488c0-0.406,0.131-0.792,0.359-1.059
		c0.246-0.285,0.599-0.43,1.049-0.43h4.641c1.367,0,1.406,1.336,1.406,1.488s-0.039,1.488-1.406,1.488H65.186z M42.956,98.722
		c-1.367,0-1.407-1.336-1.407-1.488c0-0.407,0.132-0.793,0.36-1.059c0.245-0.285,0.597-0.43,1.047-0.43h14.245
		c1.367,0,1.406,1.336,1.406,1.488s-0.039,1.488-1.406,1.488H42.956z M30.539,98.722c-1.367,0-1.407-1.336-1.407-1.488
		s0.04-1.488,1.407-1.488h4.644c1.366,0,1.406,1.336,1.406,1.488s-0.04,1.488-1.406,1.488H30.539z M65.186,87.131
		c-1.369,0-1.408-1.337-1.408-1.489s0.039-1.489,1.408-1.489h4.641c1.367,0,1.406,1.337,1.406,1.489s-0.039,1.489-1.406,1.489
		H65.186z M42.956,87.131c-1.367,0-1.407-1.337-1.407-1.489s0.04-1.489,1.407-1.489h14.245c1.367,0,1.406,1.337,1.406,1.489
		s-0.039,1.489-1.406,1.489H42.956z M30.539,87.131c-1.367,0-1.407-1.337-1.407-1.489s0.04-1.489,1.407-1.489h4.644
		c1.366,0,1.406,1.337,1.406,1.489s-0.04,1.489-1.406,1.489H30.539z M65.186,75.248c-1.369,0-1.408-1.336-1.408-1.488
		s0.039-1.488,1.408-1.488h4.641c1.367,0,1.406,1.336,1.406,1.488s-0.039,1.488-1.406,1.488H65.186z M42.956,75.248
		c-1.367,0-1.407-1.336-1.407-1.488s0.04-1.488,1.407-1.488h14.245c1.367,0,1.406,1.336,1.406,1.488c0,0.407-0.131,0.793-0.36,1.059
		c-0.245,0.285-0.597,0.43-1.046,0.43H42.956z M30.539,75.248c-1.367,0-1.407-1.336-1.407-1.488s0.04-1.488,1.407-1.488h4.644
		c1.366,0,1.406,1.336,1.406,1.488c0,0.407-0.131,0.793-0.36,1.059c-0.245,0.285-0.597,0.43-1.046,0.43H30.539z M65.186,63.307
		c-1.369,0-1.408-1.337-1.408-1.489c0-0.153,0.039-1.49,1.408-1.49h4.641c1.367,0,1.406,1.337,1.406,1.49
		c0,0.152-0.039,1.489-1.406,1.489H65.186z M42.956,63.307c-1.367,0-1.407-1.337-1.407-1.489c0-0.153,0.04-1.49,1.407-1.49h14.245
		c1.367,0,1.406,1.337,1.406,1.49c0,0.152-0.039,1.489-1.406,1.489H42.956z M30.539,63.307c-1.367,0-1.407-1.337-1.407-1.489
		c0-0.153,0.04-1.49,1.407-1.49h4.644c1.366,0,1.406,1.337,1.406,1.49c0,0.152-0.04,1.489-1.406,1.489H30.539z M65.186,51.362
		c-1.369,0-1.408-1.336-1.408-1.487c0-0.152,0.039-1.488,1.408-1.488h4.641c1.367,0,1.406,1.336,1.406,1.488
		c0,0.151-0.039,1.487-1.406,1.487H65.186z M42.956,51.362c-1.367,0-1.407-1.336-1.407-1.487c0-0.152,0.04-1.488,1.407-1.488h14.245
		c1.367,0,1.406,1.336,1.406,1.488c0,0.151-0.039,1.487-1.406,1.487H42.956z M30.539,51.362c-1.367,0-1.407-1.336-1.407-1.487
		c0-0.407,0.132-0.793,0.36-1.059c0.245-0.285,0.598-0.43,1.047-0.43h4.644c1.366,0,1.406,1.336,1.406,1.488
		c0,0.151-0.04,1.487-1.406,1.487H30.539z M65.186,39.422c-1.369,0-1.408-1.336-1.408-1.488c0-0.406,0.131-0.792,0.359-1.059
		c0.246-0.285,0.599-0.43,1.049-0.43h4.641c1.367,0,1.406,1.336,1.406,1.488s-0.039,1.488-1.406,1.488H65.186z M42.956,39.422
		c-1.367,0-1.407-1.336-1.407-1.488c0-0.407,0.132-0.793,0.36-1.059c0.245-0.285,0.597-0.43,1.047-0.43h14.245
		c1.367,0,1.406,1.336,1.406,1.488s-0.039,1.488-1.406,1.488H42.956z M30.539,39.422c-1.367,0-1.407-1.336-1.407-1.488
		s0.04-1.488,1.407-1.488h4.644c1.366,0,1.406,1.336,1.406,1.488s-0.04,1.488-1.406,1.488H30.539z M65.186,27.481
		c-1.369,0-1.408-1.337-1.408-1.489c0-0.153,0.039-1.49,1.408-1.49h4.641c1.367,0,1.406,1.337,1.406,1.49
		c0,0.152-0.039,1.489-1.406,1.489H65.186z M42.956,27.481c-1.367,0-1.407-1.337-1.407-1.489c0-0.153,0.04-1.49,1.407-1.49h14.245
		c1.367,0,1.406,1.337,1.406,1.49c0,0.152-0.039,1.489-1.406,1.489H42.956z M30.539,27.481c-1.367,0-1.407-1.337-1.407-1.489
		c0-0.153,0.04-1.49,1.407-1.49h4.644c1.366,0,1.406,1.337,1.406,1.49c0,0.152-0.04,1.489-1.406,1.489H30.539z M65.186,15.539
		c-1.369,0-1.408-1.336-1.408-1.488c0-0.153,0.039-1.489,1.408-1.489h4.641c1.367,0,1.406,1.336,1.406,1.489
		c0,0.152-0.039,1.488-1.406,1.488H65.186z M30.539,15.539c-1.367,0-1.407-1.336-1.407-1.488c0-0.153,0.04-1.489,1.407-1.489h4.644
		c1.366,0,1.406,1.336,1.406,1.489c0,0.406-0.131,0.793-0.36,1.059c-0.245,0.285-0.597,0.43-1.046,0.43H30.539z"/>
	<path fill="#ffffff" d="M42.956,15.539c-1.367,0-1.407-1.336-1.407-1.488c0-0.153,0.04-1.489,1.407-1.489h14.245
		c1.367,0,1.406,1.336,1.406,1.489c0,0.406-0.131,0.793-0.36,1.059c-0.245,0.285-0.597,0.43-1.046,0.43H42.956z"/>
</g>
</svg>
