<svg width="100" height="100" viewBox="0 0 100 100" fill="none" xmlns="http://www.w3.org/2000/svg">
<path d="M18.75 82.0312H81.25C85.5469 82.0312 89.0625 78.5156 89.0625 74.2188V25.7812C89.0625 21.4844 85.5469 17.9688 81.25 17.9688H18.75C14.4531 17.9688 10.9375 21.4844 10.9375 25.7812V74.2188C10.9375 78.5156 14.4531 82.0312 18.75 82.0312Z" fill="white"/>
<path d="M67.1875 17.9688C67.1875 9.375 74.2188 2.34375 82.8125 2.34375C91.4062 2.34375 98.4375 8.59375 98.4375 17.1875C98.4375 25.7812 91.4062 33.5938 82.8125 33.5938C74.2188 33.5938 67.1875 26.5625 67.1875 17.9688Z" fill="#1FD4AF"/>
<path d="M82.8124 23.4375C82.8124 23.4375 82.7343 23.4375 82.8124 23.4375C82.0312 23.4375 81.4062 23.0469 80.9374 22.5L75.4687 15.4687C74.6874 14.4531 74.8437 12.9687 75.8593 12.1875C76.8749 11.4062 78.3593 11.5625 79.1406 12.5781L82.8906 17.4219L93.5937 5.46873C94.4531 4.53123 95.9374 4.37498 96.8749 5.31248C97.8124 6.17185 97.8906 7.65623 97.0312 8.59373L84.5312 22.6562C84.1406 23.125 83.5156 23.4375 82.8124 23.4375Z" fill="white"/>
<path d="M81.25 84.375H18.75C13.125 84.375 8.59375 79.8438 8.59375 74.2188V35.9375C8.59375 34.6094 9.60938 33.5938 10.9375 33.5938C12.2656 33.5938 13.2812 34.6094 13.2812 35.9375V74.2188C13.2812 77.2656 15.7031 79.6875 18.75 79.6875H81.25C84.2969 79.6875 86.7188 77.1875 86.7188 75V39.8438C86.7188 38.5156 87.7344 37.5 89.0625 37.5C90.3906 37.5 91.4062 38.5156 91.4062 39.8438V75C91.4062 80 86.6406 84.375 81.25 84.375Z" fill="#444B54"/>
<path d="M50 53.9063C38.9062 53.9063 28.5937 49.5313 20.9375 41.4844C20.0781 40.5469 20.0781 39.0626 21.0156 38.2032C21.9531 37.3438 23.4375 37.3438 24.2968 38.2813C31.0937 45.3126 40.1562 49.2188 49.9218 49.2188C59.6875 49.2188 68.8281 45.3126 75.5468 38.2813C76.4062 37.3438 77.8906 37.3438 78.8281 38.2032C79.7656 39.0626 79.7656 40.5469 78.9062 41.4844C71.4062 49.5313 61.0937 53.9063 50 53.9063Z" fill="#444B54"/>
<path d="M10.9375 28.125C9.60938 28.125 8.59375 27.1094 8.59375 25.7812C8.59375 20.1562 13.125 15.625 18.75 15.625H59.375C60.7031 15.625 61.7188 16.6406 61.7188 17.9688C61.7188 19.2969 60.7031 20.3125 59.375 20.3125H18.75C15.7031 20.3125 13.2812 22.7344 13.2812 25.7812C13.2812 27.1094 12.2656 28.125 10.9375 28.125Z" fill="#444B54"/>
</svg>
